<?xml version="1.0" encoding="utf-8"?>
<!-- Generator: Adobe Illustrator 26.0.1, SVG Export Plug-In . SVG Version: 6.00 Build 0)  -->
<svg version="1.1" id="Layer_1" xmlns="http://www.w3.org/2000/svg" xmlns:xlink="http://www.w3.org/1999/xlink" x="0px" y="0px"
	 viewBox="0 0 300.9 100" style="enable-background:new 0 0 300.9 100;" xml:space="preserve">
<style type="text/css">
	.st0{fill:#FFFFFF;stroke:#FFFFFF;stroke-miterlimit:10;}
</style>
<symbol  id="New_Symbol" viewBox="-150.4 -50 300.9 100">
	<path class="st0" d="M-135.9-45.4l-13.8,18.1c-0.4,0.5-0.3,1.1,0.2,1.5c0.2,0.1,0.4,0.2,0.6,0.2h27.6c0.6,0,1.1-0.5,1.1-1.1
		c0-0.2-0.1-0.5-0.2-0.6l-13.8-18.1c-0.4-0.5-1-0.6-1.5-0.2C-135.8-45.5-135.9-45.5-135.9-45.4z"/>
	<text transform="matrix(1 0 0 1 -147.1782 22.9883)" style="fill:#FFFFFF; font-family:'Inter-Bold'; font-size:84.51px;">UpSide</text>
</symbol>
<g id="Layer_2_00000066495868146417017440000006450992367651156125_">
	<g id="Layer_1-2">
		
			<use xlink:href="#New_Symbol"  width="300.9" height="100" x="-150.4" y="-50" transform="matrix(1 0 0 1 150.4401 49.9999)" style="overflow:visible;"/>
	</g>
</g>
</svg>
