<svg xmlns="http://www.w3.org/2000/svg" xmlns:xlink="http://www.w3.org/1999/xlink" viewBox="0 0 297.14 86.07"><defs><style>.cls-1{fill:url(#linear-gradient);}</style><linearGradient id="linear-gradient" y1="43.04" x2="297.14" y2="43.04" gradientUnits="userSpaceOnUse"><stop offset="0" stop-color="#604afe"/><stop offset="0.27" stop-color="#604afe"/><stop offset="1" stop-color="#ac83fc"/></linearGradient></defs><g id="Layer_2" data-name="Layer 2"><g id="Layer_1-2" data-name="Layer 1"><path class="cls-1" d="M46.07,7.32h13V47.24A20.88,20.88,0,0,1,46.94,66.85a30.06,30.06,0,0,1-13.36,2.8,30.09,30.09,0,0,1-13.38-2.8A21.41,21.41,0,0,1,11.28,59,21.57,21.57,0,0,1,8.1,47.24v-27h-7a1.06,1.06,0,0,1-.84-1.71L8.1,8.17l.65-.85L14,.42a1.06,1.06,0,0,1,1.69,0l5.25,6.9.17.23,8.36,11a1.07,1.07,0,0,1-.85,1.71H21.1V46.12a12.46,12.46,0,0,0,1.54,6.25A11.07,11.07,0,0,0,27,56.66a13.35,13.35,0,0,0,6.57,1.56,13.35,13.35,0,0,0,6.59-1.56,11.08,11.08,0,0,0,4.35-4.29,12.46,12.46,0,0,0,1.55-6.25ZM111.91,32.6a30.23,30.23,0,0,1,2.55,13.19,30.6,30.6,0,0,1-2.47,13,18.47,18.47,0,0,1-6.73,8,17.23,17.23,0,0,1-9.49,2.71,14.66,14.66,0,0,1-6.32-1.23,13,13,0,0,1-4.25-3.1,15.46,15.46,0,0,1-2.52-3.8h-.39V86.07H69.51V22.69h12.6v7.74h.57a17,17,0,0,1,2.45-3.8,12.87,12.87,0,0,1,4.2-3.24,14.31,14.31,0,0,1,6.47-1.3,17.39,17.39,0,0,1,9.3,2.62A18.33,18.33,0,0,1,111.91,32.6Zm-10.5,13.13a20.36,20.36,0,0,0-1.11-7A10.46,10.46,0,0,0,97,34a9.17,9.17,0,0,0-10.58-.06,10.31,10.31,0,0,0-3.29,4.68A20.26,20.26,0,0,0,82,45.73a20.53,20.53,0,0,0,1.14,7.18,10.53,10.53,0,0,0,3.3,4.75,9,9,0,0,0,10.54,0,10.64,10.64,0,0,0,3.28-4.8A20.58,20.58,0,0,0,101.41,45.73ZM184.72,3.81a6.87,6.87,0,0,0-4.88,1.9,6.15,6.15,0,0,0,0,9.13,7.2,7.2,0,0,0,9.75,0,6.15,6.15,0,0,0,0-9.13A6.85,6.85,0,0,0,184.72,3.81ZM164.61,39.25a22.42,22.42,0,0,0-5.82-3.69,38.94,38.94,0,0,0-7.38-2.4l-5.53-1.32a30.49,30.49,0,0,1-3.78-1.1A15.11,15.11,0,0,1,139,29.21a7,7,0,0,1-2.12-2.11,5.06,5.06,0,0,1-.7-2.88,5.84,5.84,0,0,1,1.15-3.55,7.62,7.62,0,0,1,3.35-2.44,14.36,14.36,0,0,1,5.37-.89,12.28,12.28,0,0,1,7.42,2A7.61,7.61,0,0,1,156.54,25H169a17.26,17.26,0,0,0-2.94-9.67,18.92,18.92,0,0,0-8-6.51,28.48,28.48,0,0,0-12-2.34,29.33,29.33,0,0,0-12,2.34,19.94,19.94,0,0,0-8.3,6.51,16,16,0,0,0-3,9.76,13.68,13.68,0,0,0,4.47,10.83q4.5,4,12.27,5.91l6.69,1.68a36.65,36.65,0,0,1,5.69,1.8,9.5,9.5,0,0,1,3.54,2.41,5.15,5.15,0,0,1,1.22,3.48,6.17,6.17,0,0,1-1.35,3.93,8.81,8.81,0,0,1-3.8,2.67,15.71,15.71,0,0,1-5.75,1,16.43,16.43,0,0,1-6-1,9.6,9.6,0,0,1-4.24-3.09,9.27,9.27,0,0,1-1.78-5.14H121.21a20.07,20.07,0,0,0,3.23,11.12A18.83,18.83,0,0,0,133,67.37,33.71,33.71,0,0,0,146,69.65a32.69,32.69,0,0,0,12.83-2.26A18.23,18.23,0,0,0,167,61a17,17,0,0,0,2.86-9.77,16.5,16.5,0,0,0-1.39-6.82A15.53,15.53,0,0,0,164.61,39.25Zm13.68,29.53h12.79V22.69H178.29ZM231.74,7.32H244.5V68.78H231.89V61.4h-.54a16.42,16.42,0,0,1-2.53,3.8,12.76,12.76,0,0,1-4.23,3.1,14.69,14.69,0,0,1-6.32,1.23,17.26,17.26,0,0,1-9.5-2.71,18.45,18.45,0,0,1-6.72-8,30.59,30.59,0,0,1-2.48-13,30.23,30.23,0,0,1,2.55-13.19,18.38,18.38,0,0,1,6.8-7.89,17.38,17.38,0,0,1,9.32-2.62,14.34,14.34,0,0,1,6.47,1.3,12.87,12.87,0,0,1,4.2,3.24,16.93,16.93,0,0,1,2.44,3.8h.39ZM232,45.73a20.26,20.26,0,0,0-1.14-7.14,10.25,10.25,0,0,0-3.3-4.68,8.39,8.39,0,0,0-5.25-1.65A8.29,8.29,0,0,0,217,34a10.46,10.46,0,0,0-3.27,4.74,20.36,20.36,0,0,0-1.11,7,20.59,20.59,0,0,0,1.12,7.1,10.7,10.7,0,0,0,3.27,4.8,9,9,0,0,0,10.54,0,10.68,10.68,0,0,0,3.3-4.75A20.29,20.29,0,0,0,232,45.73ZM265.75,49v0A12.82,12.82,0,0,0,267,55a9.14,9.14,0,0,0,3.62,3.84,10.92,10.92,0,0,0,5.55,1.35,12.09,12.09,0,0,0,3.9-.6,8.09,8.09,0,0,0,3-1.8A7.83,7.83,0,0,0,285,54.8l11.83.78A16.14,16.14,0,0,1,293.19,63a18.46,18.46,0,0,1-7.14,4.92A26.86,26.86,0,0,1,276,69.68a24.45,24.45,0,0,1-12.23-2.89,19.56,19.56,0,0,1-7.88-8.23,27.07,27.07,0,0,1-2.76-12.62,26.94,26.94,0,0,1,2.76-12.48,20.38,20.38,0,0,1,7.79-8.37,22.61,22.61,0,0,1,11.81-3A24.41,24.41,0,0,1,284,23.54a19.18,19.18,0,0,1,6.9,4.37,19.83,19.83,0,0,1,4.61,7.31,29.15,29.15,0,0,1,1.65,10.27V49Zm0-7.93H285.1a9.79,9.79,0,0,0-1.2-4.89,8.73,8.73,0,0,0-3.31-3.35,9.69,9.69,0,0,0-4.91-1.21A9.85,9.85,0,0,0,270.53,33,9.66,9.66,0,0,0,267,36.54,10,10,0,0,0,265.77,41.08Z"/></g></g></svg>