<svg xmlns="http://www.w3.org/2000/svg" xmlns:xlink="http://www.w3.org/1999/xlink" viewBox="0 0 59.06 69.65"><defs><style>.cls-1{fill:url(#linear-gradient);}</style><linearGradient id="linear-gradient" y1="34.83" x2="59.06" y2="34.83" gradientUnits="userSpaceOnUse"><stop offset="0" stop-color="#604afe"/><stop offset="0.5" stop-color="#604afe"/><stop offset="1" stop-color="#ac83fc"/></linearGradient></defs><g id="Layer_2" data-name="Layer 2"><g id="Layer_1-2" data-name="Layer 1"><path class="cls-1" d="M46.07,7.32h13V47.24A20.88,20.88,0,0,1,46.94,66.85a30.06,30.06,0,0,1-13.36,2.8,30.09,30.09,0,0,1-13.38-2.8A21.41,21.41,0,0,1,11.28,59,21.57,21.57,0,0,1,8.1,47.24v-27h-7a1.06,1.06,0,0,1-.84-1.71L8.1,8.17l.65-.85L14,.42a1.06,1.06,0,0,1,1.69,0l5.25,6.9.17.23,8.36,11a1.07,1.07,0,0,1-.85,1.71H21.1V46.12a12.46,12.46,0,0,0,1.54,6.25A11.07,11.07,0,0,0,27,56.66a13.35,13.35,0,0,0,6.57,1.56,13.35,13.35,0,0,0,6.59-1.56,11.08,11.08,0,0,0,4.35-4.29,12.46,12.46,0,0,0,1.55-6.25Z"/></g></g></svg>